<svg width="256" height="256" viewBox="0 0 256 256" xmlns="http://www.w3.org/2000/svg">
    <!-- Gradient Definitions -->
    <defs>
        <linearGradient id="grad1" x1="0%" y1="0%" x2="100%" y2="100%">
            <stop offset="0%" style="stop-color:#3b82f6;stop-opacity:1" />
            <stop offset="100%" style="stop-color:#8b5cf6;stop-opacity:1" />
        </linearGradient>
        <linearGradient id="grad2" x1="0%" y1="0%" x2="100%" y2="0%">
            <stop offset="0%" style="stop-color:#2dd4bf;stop-opacity:1" />
            <stop offset="100%" style="stop-color:#67e8f9;stop-opacity:1" />
        </linearGradient>
         <linearGradient id="grad3" x1="0%" y1="100%" x2="100%" y2="0%">
            <stop offset="0%" style="stop-color:#a855f7;stop-opacity:1" />
            <stop offset="100%" style="stop-color:#ec4899;stop-opacity:1" />
        </linearGradient>
    </defs>

    <!-- Main Abstract Shape -->
    <g transform="translate(128, 128) scale(1.1)">
        <!-- Back Orbit -->
        <path d="M -80,-20 C -120,0 -80,100 0,80 S 120,-20 80,-60" stroke="url(#grad2)" stroke-width="12" fill="none" stroke-linecap="round"/>
        
        <!-- Central Hexagon Group -->
        <g transform="rotate(-15)">
            <!-- Main Hexagon Base -->
            <path d="M-40,-70 l80,0 l40,70 l-40,70 l-80,0 l-40,-70 Z" fill="url(#grad1)" />
            
            <!-- Icon 1: Book -->
            <g transform="translate(-40, 0)">
                <path d="M-20-15 a5,5 0 0 1 5,-5 h30 a5,5 0 0 1 5,5 v30 a5,5 0 0 1 -5,5 h-30 a5,5 0 0 1 -5,-5 Z" fill="none" stroke="#ffffff" stroke-width="3" />
                <line x1="0" y1="-20" x2="0" y2="20" stroke="#ffffff" stroke-width="3" />
            </g>

            <!-- Icon 2: Growth Chart -->
            <g transform="translate(40, 0)">
                <path d="M-15,15 l10,-20 l10,10 l10,-15" fill="none" stroke="#ffffff" stroke-width="3" stroke-linecap="round" stroke-linejoin="round"/>
                <path d="M-20,20 h40" fill="none" stroke="#ffffff" stroke-width="3" stroke-linecap="round"/>
            </g>
        </g>
        
        <!-- Front Orbit -->
        <path d="M 80,20 C 120,0 80,-100 0,-80 S -120,20 -80,60" stroke="url(#grad3)" stroke-width="15" fill="none" stroke-linecap="round"/>

        <!-- Small decorative circles -->
        <circle cx="-90" cy="70" r="6" fill="#f0abfc" />
        <circle cx="95" cy="-70" r="5" fill="#67e8f9" />
        <circle cx="10" cy="95" r="4" fill="#ffffff" />
    </g>
</svg>
